# xmcd
#
# Track frame offsets: 
#        150
#        14664
#        30412
#        48584
#        74417
#        94516
#        114209
#        135990
#        151863
#        170027
#        183420
#        199526
#        221660
#
# Disc length: 3181 seconds
#
# Revision: 0
# Processed by: cddbd v1.5.1PL0 Copyright (c) Steve Scherf et al.
# Submitted via: ExactAudioCopy v0.95a4
#
DISCID=aa0c6b0d
DTITLE=Marcia Ball - Presumed Innocent
DYEAR=1900
DGENRE=Austin
TTITLE0=The Scene of the Crime
TTITLE1=You Make it Hard
TTITLE2=Count the Days
TTITLE3=Let the Tears Roll Down
TTITLE4=Louella
TTITLE5=Fly on the Wall
TTITLE6=I have the Right to Know
TTITLE7=Thibodaux, Louisiana
TTITLE8=I'm Coming Down With the Blues
TTITLE9=Shake a Leg
TTITLE10=Somebody to Love
TTITLE11=She's so Innocent
TTITLE12=You Make Me Happy
EXTD=
EXTT0=
EXTT1=
EXTT2=
EXTT3=
EXTT4=
EXTT5=
EXTT6=
EXTT7=
EXTT8=
EXTT9=
EXTT10=
EXTT11=
EXTT12=
PLAYORDER=
